<?xml version="1.0" encoding="utf-8"?>
<!-- Generator: Adobe Illustrator 16.0.0, SVG Export Plug-In . SVG Version: 6.00 Build 0)  -->
<!DOCTYPE svg PUBLIC "-//W3C//DTD SVG 1.1//EN" "http://www.w3.org/Graphics/SVG/1.1/DTD/svg11.dtd">
<svg version="1.1" id="Layer_1" xmlns="http://www.w3.org/2000/svg" xmlns:xlink="http://www.w3.org/1999/xlink" x="0px" y="0px"
	 width="536.205px" height="276.847px" viewBox="0 0 536.205 276.847" enable-background="new 0 0 536.205 276.847"
	 xml:space="preserve">
<g>
	<g>
		<path fill="#FFFFFF" d="M91.938,192.211c6.104-8.502,9.155-15.219,9.155-20.619c0-4.461-2.583-8.168-7.043-10.559
			c-9.155-4.736-41.317-11.662-40.612-27.297c1.174-27.232,52.585-72.062,61.271-67.469c3.286,1.688-3.052,13.289-8.921,23.154
			c-7.746,11.885-10.799,21.418-10.799,26.582c0,5.4,2.348,8.92,5.635,11.547c4.461,3.8,7.043,1.402,9.155-2.777
			c3.286-6.293,10.095-19.869,15.729-28.512c3.521-5.872,9.39-16.439,7.041-25.593c-1.643-6.01-5.869-12.908-12.441-17.692
			c-3.99-2.485-8.686-3.187-14.32-2.055c-5.398,1.084-10.328,2.776-18.075,7.617c-21.128,13.164-57.75,48.452-57.75,80.379
			c0,23.945,32.631,30.072,49.534,39.828c2.582,1.594,3.756,5.582,0.233,9.812c-2.582,3.1-7.277,5.215-12.441,6.252
			c-13.616,2.734-29.109-5.895-38.265-11.568c-4.93-3-11.504-3.559-18.311-2.193c-2.818,0.566-5.4,1.318-7.277,2.166
			c-3.287,1.834-4.932,4.746-1.645,8.078c18.547,17.639,41.317,22.691,58.454,19.252C74.331,207.717,85.834,200.479,91.938,192.211z
			"/>
	</g>
	<g>
		<path fill="#FFFFFF" d="M536.051,68.002c-0.088-1.025-0.175-2.047-0.262-3.064c-0.153-1.023-0.304-2.042-0.455-3.057
			c-0.122-1.007-0.408-2.026-0.625-3.027l-0.35-1.502c-0.145-0.52-0.329-1.066-0.497-1.594l-0.522-1.582l-0.266-0.783l-0.274-0.618
			c-0.414-0.911-0.826-1.819-1.235-2.722c-1.138-2.071-2.517-4.019-4.262-5.514c-3.405-3.115-7.606-4.593-11.549-5.171
			c-3.985-0.49-7.872-0.021-11.409,1.193c-0.887,0.319-1.727,0.689-2.591,1.084c-7.389,4.055-11.231,11.954-14.196,19.539
			c-7.542,19.298-13.3,37.634-29.419,51.878c2.583-5.684,3.756-12.492,3.992-18.407c0.469-12.771-2.583-27.419-2.583-44.087
			c0-3.053,0.234-7.089,0.469-9.954c7.277-13.434,5.87-18.317-0.469-17.045c-3.522,0.707-7.747,3.199-11.503,7.241
			c-5.399,5.544-8.218,11.509-9.155,20.148c-6.104,11.32-14.319,25.177-22.067,37.766c-0.704-5.493-4.225-5.96-8.921-1.025
			c-5.165,5.496-7.512,12.776-7.512,19.818c0,1.654,0.147,3.301,0.406,4.908c-7.261,12.791-15.699,22.577-22.47,23.938
			c-3.99,0.801-6.338-3.658-6.338-10.701c0-5.166,1.408-11.552,4.226-18.455c8.216-19.492,21.597-45.42,30.519-62.47
			c5.164-1.741,11.268-3.436,15.493-3.814c5.634-0.428,7.276-3.574,4.93-7.328c-1.643-2.486-5.634-5.443-12.911-4.921
			C417.061,21.535,418,15.948,418,11.722c0-2.817-0.939-6.619-2.582-9.107c-2.583-3.941-5.399-3.611-8.922,2.262
			c-5.398,8.831-10.328,17.566-17.606,31.705c-5.163,1.506-11.502,3.014-16.901,3.861c-5.399,0.851-7.746,3.669-4.46,7.938
			c1.877,2.441,6.104,4.176,13.381,3.653c-9.391,18.788-18.312,39.126-23.006,51.571c-1.286,3.29-2.276,6.334-3.016,9.141
			c-7.235,16.626-19.857,32.541-27.735,34.123c-3.521,0.707-5.4-2.672-5.4-8.541c0-3.52,0.705-7.184,1.879-10.94
			c4.226-13.056,15.493-31.048,25.354-44.53c2.816-3.617,3.99-7.375,3.99-10.19c0-6.105-2.583-10.985-6.573-14.645
			c-3.286-2.627-6.338-1.31-10.33,2.308c-7.041,6.109-13.85,11.231-20.188,14.147c2.582-7.562,4.459-15.45,4.459-20.615
			c0-4.93-1.877-7.839-7.041-6.803c-7.748,1.79-23.477,22.085-23.477,34.526c0,4.227,1.645,7.184,5.87,8.684
			c-3.991,7.139-7.981,11.461-12.209,13.953c0-12.443-2.815-17.98-7.512-21.967c-1.407-1.127-2.581-1.83-3.757-3.002
			c-5.162-5.773-9.389-7.272-17.604-5.154c-14.556,4.097-30.049,20.354-38.97,38.344c-4.588,9.363-7.875,19.037-9.096,27.752
			c-6.858,14.91-20.153,32.848-37.383,39.799c7.512-7.611,15.26-19.732,20.894-33.773c5.399-12.354,9.155-25.08,9.155-35.176
			c0-11.973-6.809-23.283-20.894-20.455c-6.339,1.272-13.146,5.69-19.015,10.859c0-3.051-0.47-6.008-2.348-8.215
			c-1.878-2.205-4.93-2.531-9.156,3.482C133.249,119.123,94.515,199.91,87.707,223.58c-2.112,6.996-2.815,12.068-2.815,15.824
			c0,4.93,1.174,7.98,4.693,11.734c2.349,2.346,5.166,0.842,7.043-3.762c9.859-24.986,19.954-47.201,30.283-68.525
			c5.399,11.594,16.902,15.623,35.448,11.898c17.655-3.543,35.479-12.553,46.534-29.934c0.933,1.979,2.073,3.844,3.465,5.578
			c6.573,7.365,15.025,8.721,22.771,7.166c19.015-3.818,41.082-35.949,46.48-59.57c12.442-3.906,21.598-12.787,27.938-23.919
			c5.398-1.319,11.502-3.718,18.545-8.184c-13.381,18.885-25.588,42.933-25.588,54.905c0,13.852,8.217,22.766,23.24,19.75
			c9.98-2.004,21.964-9.973,30.155-20.222c3.962,7.717,11.846,11.085,20.549,9.339c12.014-2.412,22.539-12.019,29.68-20.9
			c8.188,10.734,21.294,11.34,34.404,8.271c17.606-4.239,34.04-16.459,42.961-34.683c5.609-11.459,8.155-20.232,11.517-32.287
			c2.901-10.407,7.496-21.298,19.337-18.578c2.551,0.662,4.961,1.873,6.513,3.697c0.82,0.842,1.339,1.889,1.813,2.939l0.03,0.094
			l0.105,0.316l0.213,0.635l0.425,1.273l0.211,0.638l0.094,0.518l0.202,1.027l0.212,1.032l0.146,1.188
			c0.085,0.799,0.24,1.568,0.249,2.403c0.039,0.819,0.079,1.642,0.118,2.469c-0.013,0.841-0.027,1.685-0.042,2.532
			c-0.241,6.814-1.692,14.016-3.876,21.18c-1.12,3.579-2.43,7.157-3.938,10.65c-0.376,0.873-0.753,1.747-1.17,2.594l-0.607,1.283
			l-0.076,0.16c-0.046,0.105,0.15-0.346,0.023-0.072l-0.183,0.342l-0.364,0.686c-0.975,1.828-1.954,3.668-2.938,5.518
			c-0.484,0.984-1.014,1.682-1.52,2.51l-1.527,2.405c-0.516,0.802-0.993,1.608-1.536,2.411l-1.757,2.408l-1.755,2.415l-0.879,1.209
			l-0.966,1.153c-1.279,1.537-2.566,3.082-3.857,4.633c-10.836,11.99-24.255,22.25-39.446,30.217
			c-15.097,8.113-31.754,14.129-48.834,18.84c-17.139,4.623-34.74,7.939-52.303,10.316c-17.55,2.426-35.058,3.922-52.139,5.09
			c-8.646,0.531-17.15,1.053-25.473,1.562c-4.189,0.256-8.332,0.51-12.425,0.76c-4.173,0.307-8.294,0.611-12.36,0.91
			c-8.119,0.521-16.094,1.348-23.807,2.104c-7.691,0.637-15.233,1.775-22.455,2.715c-30.974,3.906-57.914,12.92-68.903,44.871
			c-17.509,50.91,23.006,22.939,45.189,14.018c8.655-3.482,19.768-6.791,33.011-9.801c6.479-1.502,13.155-3.23,20.346-4.549
			c7.131-1.424,14.491-2.949,22.219-4.223c3.848-0.674,7.748-1.357,11.696-2.049c4.038-0.654,8.125-1.316,12.258-1.986
			c8.317-1.352,16.813-2.73,25.454-4.135c17.461-2.959,35.598-6.344,53.935-10.773c18.333-4.379,36.878-9.809,55.022-16.711
			c18.104-6.998,35.872-15.471,52.023-26.346c16.209-10.693,30.586-24.08,41.641-39.148c1.31-1.935,2.613-3.861,3.912-5.779
			l0.967-1.436l0.879-1.492l1.739-2.973l1.722-2.957c0.55-1.019,1.062-2.09,1.586-3.129c0.52-1.044,1.037-2.086,1.552-3.125
			c0.489-1.024,1.085-2.108,1.433-3.049c0.795-1.938,1.587-3.865,2.375-5.783l0.693-1.701l0.564-1.578
			c0.386-1.049,0.723-2.098,1.052-3.143c1.327-4.184,2.39-8.341,3.244-12.486C535.718,84.477,536.575,76.205,536.051,68.002z
			 M143.344,178.369c-6.104,1.225-7.747-15.348-0.47-31.834l7.512-14.184c10.095-19.164,23.006-32.555,27.231-31.525
			c1.174,0.234,1.643,2.956,1.643,7.182c0,7.748-2.816,20.285-8.451,32.451C161.185,161.877,150.622,176.908,143.344,178.369z
			 M254.144,133.355c-8.686,16.533-19.954,28.42-25.587,29.551c-2.818,0.566-4.227-3.141-4.227-9.012
			c0-8.451,3.991-22.634,9.859-34.846c4.227-7.891,8.922-14.938,13.616-20.576c1.644,6.48,5.868,12.439,13.851,15.533
			C260.248,120.157,257.431,127.061,254.144,133.355z M265.648,105.457c-2.583-2.534-3.756-8.402-3.756-12.627
			c0-3.758,2.111-6.06,3.521-6.343c1.645-0.329,3.521,0.702,3.521,4.224C268.934,93.764,267.995,99.586,265.648,105.457z
			 M432.551,123.599c-5.164,1.038-10.094-6.19-12.91-16.658c7.041-11.509,13.615-22.923,19.249-32.976
			c0.469,6.246,0.704,13.709,0.704,21.223C439.594,110.446,437.481,122.609,432.551,123.599z"/>
	</g>
</g>
</svg>
